<?xml version="1.0" encoding="utf-8" standalone="no"?>
<!DOCTYPE svg PUBLIC "-//W3C//DTD SVG 1.1//EN"
  "http://www.w3.org/Graphics/SVG/1.1/DTD/svg11.dtd">
<svg xmlns:xlink="http://www.w3.org/1999/xlink" width="864pt" height="360pt" viewBox="0 0 864 360" xmlns="http://www.w3.org/2000/svg" version="1.1">
 <metadata>
  <rdf:RDF xmlns:dc="http://purl.org/dc/elements/1.1/" xmlns:cc="http://creativecommons.org/ns#" xmlns:rdf="http://www.w3.org/1999/02/22-rdf-syntax-ns#">
   <cc:Work>
    <dc:type rdf:resource="http://purl.org/dc/dcmitype/StillImage"/>
    <dc:date>2026-01-20T10:45:23.317074</dc:date>
    <dc:format>image/svg+xml</dc:format>
    <dc:creator>
     <cc:Agent>
      <dc:title>Matplotlib v3.7.5, https://matplotlib.org/</dc:title>
     </cc:Agent>
    </dc:creator>
   </cc:Work>
  </rdf:RDF>
 </metadata>
 <defs>
  <style type="text/css">*{stroke-linejoin: round; stroke-linecap: butt}</style>
 </defs>
 <g id="figure_1">
  <g id="patch_1">
   <path d="M 0 360 
L 864 360 
L 864 0 
L 0 0 
z
" style="fill: #ffffff"/>
  </g>
  <g id="axes_1">
   <g id="patch_2">
    <path d="M 42.86 332.12 
L 853.2 332.12 
L 853.2 66.784 
L 42.86 66.784 
z
" style="fill: #ffffff"/>
   </g>
   <g id="patch_3">
    <path d="M 79.693636 332.12 
L 132.53514 332.12 
L 132.53514 187.391273 
L 79.693636 187.391273 
z
" clip-path="url(#pf21ffd0760)" style="fill: #3c8829"/>
   </g>
   <g id="patch_4">
    <path d="M 141.860111 332.12 
L 194.701615 332.12 
L 194.701615 139.148364 
L 141.860111 139.148364 
z
" clip-path="url(#pf21ffd0760)" style="fill: #3c8829"/>
   </g>
   <g id="patch_5">
    <path d="M 204.026586 332.12 
L 256.86809 332.12 
L 256.86809 235.634182 
L 204.026586 235.634182 
z
" clip-path="url(#pf21ffd0760)" style="fill: #3c8829"/>
   </g>
   <g id="patch_6">
    <path d="M 266.193061 332.12 
L 319.034565 332.12 
L 319.034565 332.12 
L 266.193061 332.12 
z
" clip-path="url(#pf21ffd0760)" style="fill: #3c8829"/>
   </g>
   <g id="patch_7">
    <path d="M 328.359536 332.12 
L 381.20104 332.12 
L 381.20104 115.026909 
L 328.359536 115.026909 
z
" clip-path="url(#pf21ffd0760)" style="fill: #3c8829"/>
   </g>
   <g id="patch_8">
    <path d="M 390.526011 332.12 
L 443.367514 332.12 
L 443.367514 332.12 
L 390.526011 332.12 
z
" clip-path="url(#pf21ffd0760)" style="fill: #3c8829"/>
   </g>
   <g id="patch_9">
    <path d="M 452.692486 332.12 
L 505.533989 332.12 
L 505.533989 139.148364 
L 452.692486 139.148364 
z
" clip-path="url(#pf21ffd0760)" style="fill: #3c8829"/>
   </g>
   <g id="patch_10">
    <path d="M 514.85896 332.12 
L 567.700464 332.12 
L 567.700464 332.12 
L 514.85896 332.12 
z
" clip-path="url(#pf21ffd0760)" style="fill: #3c8829"/>
   </g>
   <g id="patch_11">
    <path d="M 577.025435 332.12 
L 629.866939 332.12 
L 629.866939 90.905455 
L 577.025435 90.905455 
z
" clip-path="url(#pf21ffd0760)" style="fill: #3c8829"/>
   </g>
   <g id="patch_12">
    <path d="M 639.19191 332.12 
L 692.033414 332.12 
L 692.033414 90.905455 
L 639.19191 90.905455 
z
" clip-path="url(#pf21ffd0760)" style="fill: #3c8829"/>
   </g>
   <g id="patch_13">
    <path d="M 701.358385 332.12 
L 754.199889 332.12 
L 754.199889 90.905455 
L 701.358385 90.905455 
z
" clip-path="url(#pf21ffd0760)" style="fill: #3c8829"/>
   </g>
   <g id="patch_14">
    <path d="M 763.52486 332.12 
L 816.366364 332.12 
L 816.366364 90.905455 
L 763.52486 90.905455 
z
" clip-path="url(#pf21ffd0760)" style="fill: #3c8829"/>
   </g>
   <g id="patch_15">
    <path d="M 79.693636 187.391273 
L 132.53514 187.391273 
L 132.53514 90.905455 
L 79.693636 90.905455 
z
" clip-path="url(#pf21ffd0760)" style="fill: #202446"/>
   </g>
   <g id="patch_16">
    <path d="M 141.860111 139.148364 
L 194.701615 139.148364 
L 194.701615 115.026909 
L 141.860111 115.026909 
z
" clip-path="url(#pf21ffd0760)" style="fill: #202446"/>
   </g>
   <g id="patch_17">
    <path d="M 204.026586 235.634182 
L 256.86809 235.634182 
L 256.86809 90.905455 
L 204.026586 90.905455 
z
" clip-path="url(#pf21ffd0760)" style="fill: #202446"/>
   </g>
   <g id="patch_18">
    <path d="M 266.193061 332.12 
L 319.034565 332.12 
L 319.034565 90.905455 
L 266.193061 90.905455 
z
" clip-path="url(#pf21ffd0760)" style="fill: #202446"/>
   </g>
   <g id="patch_19">
    <path d="M 328.359536 115.026909 
L 381.20104 115.026909 
L 381.20104 115.026909 
L 328.359536 115.026909 
z
" clip-path="url(#pf21ffd0760)" style="fill: #202446"/>
   </g>
   <g id="patch_20">
    <path d="M 390.526011 332.12 
L 443.367514 332.12 
L 443.367514 332.12 
L 390.526011 332.12 
z
" clip-path="url(#pf21ffd0760)" style="fill: #202446"/>
   </g>
   <g id="patch_21">
    <path d="M 452.692486 139.148364 
L 505.533989 139.148364 
L 505.533989 90.905455 
L 452.692486 90.905455 
z
" clip-path="url(#pf21ffd0760)" style="fill: #202446"/>
   </g>
   <g id="patch_22">
    <path d="M 514.85896 332.12 
L 567.700464 332.12 
L 567.700464 332.12 
L 514.85896 332.12 
z
" clip-path="url(#pf21ffd0760)" style="fill: #202446"/>
   </g>
   <g id="patch_23">
    <path d="M 577.025435 90.905455 
L 629.866939 90.905455 
L 629.866939 90.905455 
L 577.025435 90.905455 
z
" clip-path="url(#pf21ffd0760)" style="fill: #202446"/>
   </g>
   <g id="patch_24">
    <path d="M 639.19191 90.905455 
L 692.033414 90.905455 
L 692.033414 90.905455 
L 639.19191 90.905455 
z
" clip-path="url(#pf21ffd0760)" style="fill: #202446"/>
   </g>
   <g id="patch_25">
    <path d="M 701.358385 90.905455 
L 754.199889 90.905455 
L 754.199889 90.905455 
L 701.358385 90.905455 
z
" clip-path="url(#pf21ffd0760)" style="fill: #202446"/>
   </g>
   <g id="patch_26">
    <path d="M 763.52486 90.905455 
L 816.366364 90.905455 
L 816.366364 90.905455 
L 763.52486 90.905455 
z
" clip-path="url(#pf21ffd0760)" style="fill: #202446"/>
   </g>
   <g id="matplotlib.axis_1">
    <g id="xtick_1">
     <g id="line2d_1">
      <defs>
       <path id="m0203d4eb19" d="M 0 0 
L 0 3.5 
" style="stroke: #000000; stroke-width: 0.8"/>
      </defs>
      <g>
       <use xlink:href="#m0203d4eb19" x="106.114388" y="332.12" style="stroke: #000000; stroke-width: 0.8"/>
      </g>
     </g>
     <g id="text_1">
      <!-- 1-1 -->
      <g transform="translate(99.167513 346.393438) scale(0.1 -0.1)">
       <defs>
        <path id="Inter-Regular-31" d="M 2118 4655 
L 1555 4655 
L 391 3882 
L 391 3309 
L 1527 4064 
L 1555 4064 
L 1555 0 
L 2118 0 
L 2118 4655 
z
" transform="scale(0.015625)"/>
        <path id="Inter-Regular-2d" d="M 2491 2245 
L 455 2245 
L 455 1745 
L 2491 1745 
L 2491 2245 
z
" transform="scale(0.015625)"/>
       </defs>
       <use xlink:href="#Inter-Regular-31"/>
       <use xlink:href="#Inter-Regular-2d" x="46.448868"/>
       <use xlink:href="#Inter-Regular-31" x="92.471603"/>
      </g>
     </g>
    </g>
    <g id="xtick_2">
     <g id="line2d_2">
      <g>
       <use xlink:href="#m0203d4eb19" x="168.280863" y="332.12" style="stroke: #000000; stroke-width: 0.8"/>
      </g>
     </g>
     <g id="text_2">
      <!-- 1-2 -->
      <g transform="translate(160.630863 346.393438) scale(0.1 -0.1)">
       <defs>
        <path id="Inter-Regular-32" d="M 482 0 
L 3418 0 
L 3418 500 
L 1255 500 
L 1255 536 
L 2300 1655 
C 3100 2511 3336 2911 3336 3427 
C 3336 4145 2755 4718 1936 4718 
C 1121 4718 500 4164 500 3345 
L 1036 3345 
C 1036 3875 1380 4227 1918 4227 
C 2423 4227 2809 3918 2809 3427 
C 2809 2998 2557 2680 2018 2091 
L 482 409 
L 482 0 
z
" transform="scale(0.015625)"/>
       </defs>
       <use xlink:href="#Inter-Regular-31"/>
       <use xlink:href="#Inter-Regular-2d" x="46.448868"/>
       <use xlink:href="#Inter-Regular-32" x="92.471603"/>
      </g>
     </g>
    </g>
    <g id="xtick_3">
     <g id="line2d_3">
      <g>
       <use xlink:href="#m0203d4eb19" x="230.447338" y="332.12" style="stroke: #000000; stroke-width: 0.8"/>
      </g>
     </g>
     <g id="text_3">
      <!-- 1-3 -->
      <g transform="translate(222.641088 346.393438) scale(0.1 -0.1)">
       <defs>
        <path id="Inter-Regular-33" d="M 2055 -64 
C 2957 -64 3627 502 3627 1264 
C 3627 1855 3277 2284 2691 2382 
L 2691 2418 
C 3161 2561 3455 2948 3455 3473 
C 3455 4132 2934 4718 2073 4718 
C 1268 4718 600 4223 573 3491 
L 1118 3491 
C 1139 3955 1580 4227 2064 4227 
C 2577 4227 2909 3916 2909 3445 
C 2909 2955 2525 2636 1973 2636 
L 1600 2636 
L 1600 2136 
L 1973 2136 
C 2680 2136 3073 1777 3073 1264 
C 3073 770 2643 436 2046 436 
C 1507 436 1080 714 1046 1164 
L 473 1164 
C 507 432 1152 -64 2055 -64 
z
" transform="scale(0.015625)"/>
       </defs>
       <use xlink:href="#Inter-Regular-31"/>
       <use xlink:href="#Inter-Regular-2d" x="46.448868"/>
       <use xlink:href="#Inter-Regular-33" x="92.471603"/>
      </g>
     </g>
    </g>
    <g id="xtick_4">
     <g id="line2d_4">
      <g>
       <use xlink:href="#m0203d4eb19" x="292.613813" y="332.12" style="stroke: #000000; stroke-width: 0.8"/>
      </g>
     </g>
     <g id="text_4">
      <!-- 1-4 -->
      <g transform="translate(284.779438 346.393438) scale(0.1 -0.1)">
       <defs>
        <path id="Inter-Regular-34" d="M 373 955 
L 2564 955 
L 2564 0 
L 3100 0 
L 3100 955 
L 3736 955 
L 3736 1455 
L 3100 1455 
L 3100 4655 
L 2418 4655 
L 373 1418 
L 373 955 
z
M 2564 1455 
L 982 1455 
L 982 1491 
L 2527 3936 
L 2564 3936 
L 2564 1455 
z
" transform="scale(0.015625)"/>
       </defs>
       <use xlink:href="#Inter-Regular-31"/>
       <use xlink:href="#Inter-Regular-2d" x="46.448868"/>
       <use xlink:href="#Inter-Regular-34" x="92.471603"/>
      </g>
     </g>
    </g>
    <g id="xtick_5">
     <g id="line2d_5">
      <g>
       <use xlink:href="#m0203d4eb19" x="354.780288" y="332.12" style="stroke: #000000; stroke-width: 0.8"/>
      </g>
     </g>
     <g id="text_5">
      <!-- 1-5 -->
      <g transform="translate(347.116225 346.393438) scale(0.1 -0.1)">
       <defs>
        <path id="Inter-Regular-35" d="M 1936 -64 
C 2823 -64 3473 591 3473 1482 
C 3473 2384 2846 3045 1991 3045 
C 1677 3045 1373 2934 1182 2782 
L 1155 2782 
L 1318 4155 
L 3264 4155 
L 3264 4655 
L 846 4655 
L 564 2364 
L 1091 2300 
C 1284 2439 1614 2539 1900 2536 
C 2493 2532 2927 2082 2927 1473 
C 2927 875 2509 436 1936 436 
C 1459 436 1080 743 1036 1164 
L 491 1164 
C 525 455 1136 -64 1936 -64 
z
" transform="scale(0.015625)"/>
       </defs>
       <use xlink:href="#Inter-Regular-31"/>
       <use xlink:href="#Inter-Regular-2d" x="46.448868"/>
       <use xlink:href="#Inter-Regular-35" x="92.471603"/>
      </g>
     </g>
    </g>
    <g id="xtick_6">
     <g id="line2d_6">
      <g>
       <use xlink:href="#m0203d4eb19" x="416.946763" y="332.12" style="stroke: #000000; stroke-width: 0.8"/>
      </g>
     </g>
     <g id="text_6">
      <!-- 2-1 -->
      <g transform="translate(409.296763 346.393438) scale(0.1 -0.1)">
       <use xlink:href="#Inter-Regular-32"/>
       <use xlink:href="#Inter-Regular-2d" x="60.511383"/>
       <use xlink:href="#Inter-Regular-31" x="106.534119"/>
      </g>
     </g>
    </g>
    <g id="xtick_7">
     <g id="line2d_7">
      <g>
       <use xlink:href="#m0203d4eb19" x="479.113237" y="332.12" style="stroke: #000000; stroke-width: 0.8"/>
      </g>
     </g>
     <g id="text_7">
      <!-- 3-1 -->
      <g transform="translate(471.306987 346.393438) scale(0.1 -0.1)">
       <use xlink:href="#Inter-Regular-33"/>
       <use xlink:href="#Inter-Regular-2d" x="63.636383"/>
       <use xlink:href="#Inter-Regular-31" x="109.659119"/>
      </g>
     </g>
    </g>
    <g id="xtick_8">
     <g id="line2d_8">
      <g>
       <use xlink:href="#m0203d4eb19" x="541.279712" y="332.12" style="stroke: #000000; stroke-width: 0.8"/>
      </g>
     </g>
     <g id="text_8">
      <!-- 3-2 -->
      <g transform="translate(532.770337 346.393438) scale(0.1 -0.1)">
       <use xlink:href="#Inter-Regular-33"/>
       <use xlink:href="#Inter-Regular-2d" x="63.636383"/>
       <use xlink:href="#Inter-Regular-32" x="109.659119"/>
      </g>
     </g>
    </g>
    <g id="xtick_9">
     <g id="line2d_9">
      <g>
       <use xlink:href="#m0203d4eb19" x="603.446187" y="332.12" style="stroke: #000000; stroke-width: 0.8"/>
      </g>
     </g>
     <g id="text_9">
      <!-- 5-1 -->
      <g transform="translate(595.782125 346.393438) scale(0.1 -0.1)">
       <use xlink:href="#Inter-Regular-35"/>
       <use xlink:href="#Inter-Regular-2d" x="60.795471"/>
       <use xlink:href="#Inter-Regular-31" x="106.818207"/>
      </g>
     </g>
    </g>
    <g id="xtick_10">
     <g id="line2d_10">
      <g>
       <use xlink:href="#m0203d4eb19" x="665.612662" y="332.12" style="stroke: #000000; stroke-width: 0.8"/>
      </g>
     </g>
     <g id="text_10">
      <!-- 5-2 -->
      <g transform="translate(657.245475 346.393438) scale(0.1 -0.1)">
       <use xlink:href="#Inter-Regular-35"/>
       <use xlink:href="#Inter-Regular-2d" x="60.795471"/>
       <use xlink:href="#Inter-Regular-32" x="106.818207"/>
      </g>
     </g>
    </g>
    <g id="xtick_11">
     <g id="line2d_11">
      <g>
       <use xlink:href="#m0203d4eb19" x="727.779137" y="332.12" style="stroke: #000000; stroke-width: 0.8"/>
      </g>
     </g>
     <g id="text_11">
      <!-- 5-3 -->
      <g transform="translate(719.255699 346.393438) scale(0.1 -0.1)">
       <use xlink:href="#Inter-Regular-35"/>
       <use xlink:href="#Inter-Regular-2d" x="60.795471"/>
       <use xlink:href="#Inter-Regular-33" x="106.818207"/>
      </g>
     </g>
    </g>
    <g id="xtick_12">
     <g id="line2d_12">
      <g>
       <use xlink:href="#m0203d4eb19" x="789.945612" y="332.12" style="stroke: #000000; stroke-width: 0.8"/>
      </g>
     </g>
     <g id="text_12">
      <!-- 5-4 -->
      <g transform="translate(781.394049 346.393438) scale(0.1 -0.1)">
       <use xlink:href="#Inter-Regular-35"/>
       <use xlink:href="#Inter-Regular-2d" x="60.795471"/>
       <use xlink:href="#Inter-Regular-34" x="106.818207"/>
      </g>
     </g>
    </g>
   </g>
   <g id="matplotlib.axis_2">
    <g id="ytick_1">
     <g id="line2d_13">
      <defs>
       <path id="m026d80db92" d="M 0 0 
L -3.5 0 
" style="stroke: #000000; stroke-width: 0.8"/>
      </defs>
      <g>
       <use xlink:href="#m026d80db92" x="42.86" y="332.12" style="stroke: #000000; stroke-width: 0.8"/>
      </g>
     </g>
     <g id="text_13">
      <!-- 0 -->
      <g transform="translate(29.61 335.756719) scale(0.1 -0.1)">
       <defs>
        <path id="Inter-Regular-30" d="M 2000 -64 
C 3027 -64 3618 807 3618 2327 
C 3618 3836 3018 4718 2000 4718 
C 982 4718 382 3836 382 2327 
C 382 807 973 -64 2000 -64 
z
M 2000 436 
C 1323 436 927 1116 927 2327 
C 927 3536 1327 4227 2000 4227 
C 2673 4227 3073 3536 3073 2327 
C 3073 1116 2677 436 2000 436 
z
" transform="scale(0.015625)"/>
       </defs>
       <use xlink:href="#Inter-Regular-30"/>
      </g>
     </g>
    </g>
    <g id="ytick_2">
     <g id="line2d_14">
      <g>
       <use xlink:href="#m026d80db92" x="42.86" y="283.877091" style="stroke: #000000; stroke-width: 0.8"/>
      </g>
     </g>
     <g id="text_14">
      <!-- 2 -->
      <g transform="translate(29.808438 287.51381) scale(0.1 -0.1)">
       <use xlink:href="#Inter-Regular-32"/>
      </g>
     </g>
    </g>
    <g id="ytick_3">
     <g id="line2d_15">
      <g>
       <use xlink:href="#m026d80db92" x="42.86" y="235.634182" style="stroke: #000000; stroke-width: 0.8"/>
      </g>
     </g>
     <g id="text_15">
      <!-- 4 -->
      <g transform="translate(29.439687 239.270901) scale(0.1 -0.1)">
       <use xlink:href="#Inter-Regular-34"/>
      </g>
     </g>
    </g>
    <g id="ytick_4">
     <g id="line2d_16">
      <g>
       <use xlink:href="#m026d80db92" x="42.86" y="187.391273" style="stroke: #000000; stroke-width: 0.8"/>
      </g>
     </g>
     <g id="text_16">
      <!-- 6 -->
      <g transform="translate(29.624063 191.027991) scale(0.1 -0.1)">
       <defs>
        <path id="Inter-Regular-36" d="M 2027 -64 
C 2968 -75 3582 634 3582 1500 
C 3582 2400 2916 3045 2118 3045 
C 1639 3045 1227 2811 973 2427 
L 936 2427 
C 939 3561 1380 4218 2100 4218 
C 2591 4218 2886 3909 2991 3491 
L 3546 3491 
C 3432 4214 2882 4718 2100 4718 
C 1052 4718 409 3791 409 2145 
C 409 425 1264 -55 2027 -64 
z
M 2027 436 
C 1443 436 1016 934 1018 1491 
C 1021 2048 1468 2545 2046 2545 
C 2616 2545 3036 2077 3036 1500 
C 3036 909 2598 436 2027 436 
z
" transform="scale(0.015625)"/>
       </defs>
       <use xlink:href="#Inter-Regular-36"/>
      </g>
     </g>
    </g>
    <g id="ytick_5">
     <g id="line2d_17">
      <g>
       <use xlink:href="#m026d80db92" x="42.86" y="139.148364" style="stroke: #000000; stroke-width: 0.8"/>
      </g>
     </g>
     <g id="text_17">
      <!-- 8 -->
      <g transform="translate(29.694375 142.785082) scale(0.1 -0.1)">
       <defs>
        <path id="Inter-Regular-38" d="M 1973 -64 
C 2902 -64 3550 480 3555 1236 
C 3550 1825 3157 2325 2655 2418 
L 2655 2445 
C 3091 2559 3377 2986 3382 3482 
C 3377 4191 2782 4718 1973 4718 
C 1155 4718 559 4191 564 3482 
C 559 2986 846 2559 1291 2445 
L 1291 2418 
C 780 2325 386 1825 391 1236 
C 386 480 1034 -64 1973 -64 
z
M 1973 436 
C 1334 436 941 764 946 1264 
C 941 1789 1375 2164 1973 2164 
C 2561 2164 2996 1789 3000 1264 
C 2996 764 2602 436 1973 436 
z
M 1973 2645 
C 1464 2645 1105 2964 1109 3445 
C 1105 3918 1450 4227 1973 4227 
C 2486 4227 2832 3918 2836 3445 
C 2832 2964 2473 2645 1973 2645 
z
" transform="scale(0.015625)"/>
       </defs>
       <use xlink:href="#Inter-Regular-38"/>
      </g>
     </g>
    </g>
    <g id="ytick_6">
     <g id="line2d_18">
      <g>
       <use xlink:href="#m026d80db92" x="42.86" y="90.905455" style="stroke: #000000; stroke-width: 0.8"/>
      </g>
     </g>
     <g id="text_18">
      <!-- 10 -->
      <g transform="translate(24.964687 94.542173) scale(0.1 -0.1)">
       <use xlink:href="#Inter-Regular-31"/>
       <use xlink:href="#Inter-Regular-30" x="46.448868"/>
      </g>
     </g>
    </g>
    <g id="text_19">
     <!-- Count -->
     <g transform="translate(18.919375 213.72075) rotate(-90) scale(0.1 -0.1)">
      <defs>
       <path id="Inter-Regular-43" d="M 4309 3200 
C 4136 4155 3373 4718 2436 4718 
C 1246 4718 382 3800 382 2327 
C 382 855 1246 -64 2436 -64 
C 3373 -64 4136 500 4309 1455 
L 3746 1455 
C 3609 809 3055 464 2436 464 
C 1591 464 927 1118 927 2327 
C 927 3536 1591 4191 2436 4191 
C 3055 4191 3609 3845 3746 3200 
L 4309 3200 
z
" transform="scale(0.015625)"/>
       <path id="Inter-Regular-6f" d="M 1909 -73 
C 2855 -73 3491 645 3491 1727 
C 3491 2818 2855 3536 1909 3536 
C 964 3536 327 2818 327 1727 
C 327 645 964 -73 1909 -73 
z
M 1909 409 
C 1191 409 864 1027 864 1727 
C 864 2427 1191 3055 1909 3055 
C 2627 3055 2955 2427 2955 1727 
C 2955 1027 2627 409 1909 409 
z
" transform="scale(0.015625)"/>
       <path id="Inter-Regular-75" d="M 2691 1427 
C 2691 773 2191 473 1791 473 
C 1346 473 1027 800 1027 1309 
L 1027 3491 
L 491 3491 
L 491 1273 
C 491 382 964 -45 1618 -45 
C 2146 -45 2491 236 2655 591 
L 2691 591 
L 2691 0 
L 3227 0 
L 3227 3491 
L 2691 3491 
L 2691 1427 
z
" transform="scale(0.015625)"/>
       <path id="Inter-Regular-6e" d="M 1027 2100 
C 1027 2709 1405 3055 1918 3055 
C 2416 3055 2718 2730 2718 2182 
L 2718 0 
L 3255 0 
L 3255 2218 
C 3255 3109 2780 3536 2073 3536 
C 1546 3536 1218 3300 1055 2945 
L 1009 2945 
L 1009 3491 
L 491 3491 
L 491 0 
L 1027 0 
L 1027 2100 
z
" transform="scale(0.015625)"/>
       <path id="Inter-Regular-74" d="M 2009 3491 
L 1264 3491 
L 1264 4327 
L 727 4327 
L 727 3491 
L 200 3491 
L 200 3036 
L 727 3036 
L 727 855 
C 727 245 1218 -45 1673 -45 
C 1873 -45 2000 -9 2073 18 
L 1964 500 
C 1918 491 1846 473 1727 473 
C 1491 473 1264 545 1264 1000 
L 1264 3036 
L 2009 3036 
L 2009 3491 
z
" transform="scale(0.015625)"/>
      </defs>
      <use xlink:href="#Inter-Regular-43"/>
      <use xlink:href="#Inter-Regular-6f" x="72.727295"/>
      <use xlink:href="#Inter-Regular-75" x="132.386398"/>
      <use xlink:href="#Inter-Regular-6e" x="190.483002"/>
      <use xlink:href="#Inter-Regular-74" x="249.005737"/>
     </g>
    </g>
   </g>
   <g id="patch_27">
    <path d="M 42.86 332.12 
L 42.86 66.784 
" style="fill: none; stroke: #000000; stroke-width: 0.8; stroke-linejoin: miter; stroke-linecap: square"/>
   </g>
   <g id="patch_28">
    <path d="M 42.86 332.12 
L 853.2 332.12 
" style="fill: none; stroke: #000000; stroke-width: 0.8; stroke-linejoin: miter; stroke-linecap: square"/>
   </g>
   <g id="text_20">
    <!-- 6/10 -->
    <g style="fill: #ffffff" transform="translate(96.800794 197.555585) scale(0.09 -0.09)">
     <defs>
      <path id="Inter-Regular-2f" d="M 2136 4873 
L 1646 4873 
L 146 -700 
L 636 -700 
L 2136 4873 
z
" transform="scale(0.015625)"/>
     </defs>
     <use xlink:href="#Inter-Regular-36"/>
     <use xlink:href="#Inter-Regular-2f" x="62.357971"/>
     <use xlink:href="#Inter-Regular-31" x="98.011383"/>
     <use xlink:href="#Inter-Regular-30" x="144.460251"/>
    </g>
   </g>
   <g id="text_21">
    <!-- 8/9 -->
    <g style="fill: #ffffff" transform="translate(161.095629 149.312676) scale(0.09 -0.09)">
     <defs>
      <path id="Inter-Regular-39" d="M 1964 4718 
C 1018 4730 409 4018 409 3164 
C 409 2264 1073 1618 1873 1618 
C 2355 1618 2764 1855 3018 2236 
L 3055 2236 
C 3055 1091 2609 436 1891 436 
C 1400 436 1100 745 1000 1173 
L 446 1173 
C 555 436 1109 -64 1891 -64 
C 2936 -64 3582 864 3582 2518 
C 3582 4227 2727 4709 1964 4718 
z
M 1964 4218 
C 2546 4218 2973 3718 2973 3173 
C 2973 2618 2518 2118 1946 2118 
C 1373 2118 955 2582 955 3164 
C 955 3745 1391 4218 1964 4218 
z
" transform="scale(0.015625)"/>
     </defs>
     <use xlink:href="#Inter-Regular-38"/>
     <use xlink:href="#Inter-Regular-2f" x="61.647736"/>
     <use xlink:href="#Inter-Regular-39" x="97.301147"/>
    </g>
   </g>
   <g id="text_22">
    <!-- 4/10 -->
    <g style="fill: #ffffff" transform="translate(221.050775 245.798494) scale(0.09 -0.09)">
     <use xlink:href="#Inter-Regular-34"/>
     <use xlink:href="#Inter-Regular-2f" x="64.204559"/>
     <use xlink:href="#Inter-Regular-31" x="99.857971"/>
     <use xlink:href="#Inter-Regular-30" x="146.306839"/>
    </g>
   </g>
   <g id="text_23">
    <!-- 9/9 -->
    <g style="fill: #ffffff" transform="translate(347.563413 125.191221) scale(0.09 -0.09)">
     <use xlink:href="#Inter-Regular-39"/>
     <use xlink:href="#Inter-Regular-2f" x="62.357971"/>
     <use xlink:href="#Inter-Regular-39" x="98.011383"/>
    </g>
   </g>
   <g id="text_24">
    <!-- 8/10 -->
    <g style="fill: #ffffff" transform="translate(469.831284 149.312676) scale(0.09 -0.09)">
     <use xlink:href="#Inter-Regular-38"/>
     <use xlink:href="#Inter-Regular-2f" x="61.647736"/>
     <use xlink:href="#Inter-Regular-31" x="97.301147"/>
     <use xlink:href="#Inter-Regular-30" x="143.750015"/>
    </g>
   </g>
   <g id="text_25">
    <!-- 10/10 -->
    <g style="fill: #ffffff" transform="translate(592.035875 101.069766) scale(0.09 -0.09)">
     <use xlink:href="#Inter-Regular-31"/>
     <use xlink:href="#Inter-Regular-30" x="46.448868"/>
     <use xlink:href="#Inter-Regular-2f" x="108.948883"/>
     <use xlink:href="#Inter-Regular-31" x="144.602295"/>
     <use xlink:href="#Inter-Regular-30" x="191.051163"/>
    </g>
   </g>
   <g id="text_26">
    <!-- 10/10 -->
    <g style="fill: #ffffff" transform="translate(654.20235 101.069766) scale(0.09 -0.09)">
     <use xlink:href="#Inter-Regular-31"/>
     <use xlink:href="#Inter-Regular-30" x="46.448868"/>
     <use xlink:href="#Inter-Regular-2f" x="108.948883"/>
     <use xlink:href="#Inter-Regular-31" x="144.602295"/>
     <use xlink:href="#Inter-Regular-30" x="191.051163"/>
    </g>
   </g>
   <g id="text_27">
    <!-- 10/10 -->
    <g style="fill: #ffffff" transform="translate(716.368824 101.069766) scale(0.09 -0.09)">
     <use xlink:href="#Inter-Regular-31"/>
     <use xlink:href="#Inter-Regular-30" x="46.448868"/>
     <use xlink:href="#Inter-Regular-2f" x="108.948883"/>
     <use xlink:href="#Inter-Regular-31" x="144.602295"/>
     <use xlink:href="#Inter-Regular-30" x="191.051163"/>
    </g>
   </g>
   <g id="text_28">
    <!-- 10/10 -->
    <g style="fill: #ffffff" transform="translate(778.535299 101.069766) scale(0.09 -0.09)">
     <use xlink:href="#Inter-Regular-31"/>
     <use xlink:href="#Inter-Regular-30" x="46.448868"/>
     <use xlink:href="#Inter-Regular-2f" x="108.948883"/>
     <use xlink:href="#Inter-Regular-31" x="144.602295"/>
     <use xlink:href="#Inter-Regular-30" x="191.051163"/>
    </g>
   </g>
   <g id="text_29">
    <!-- Sonnet-4 -->
    <g transform="translate(421.310313 60.784) scale(0.12 -0.12)">
     <defs>
      <path id="Inter-Regular-53" d="M 3109 3491 
L 3655 3491 
C 3630 4193 2982 4718 2082 4718 
C 1191 4718 491 4200 491 3418 
C 491 2791 946 2418 1673 2209 
L 2246 2045 
C 2736 1909 3173 1736 3173 1273 
C 3173 764 2682 427 2036 427 
C 1482 427 991 673 946 1200 
L 364 1200 
C 418 436 1036 -82 2036 -82 
C 3109 -82 3718 509 3718 1264 
C 3718 2136 2891 2418 2409 2545 
L 1936 2673 
C 1591 2764 1036 2945 1036 3445 
C 1036 3891 1446 4218 2064 4218 
C 2627 4218 3055 3950 3109 3491 
z
" transform="scale(0.015625)"/>
      <path id="Inter-Regular-65" d="M 1955 -73 
C 2664 -73 3182 282 3346 809 
L 2827 955 
C 2691 591 2375 409 1955 409 
C 1325 409 891 816 866 1564 
L 3400 1564 
L 3400 1791 
C 3400 3091 2627 3536 1900 3536 
C 955 3536 327 2791 327 1718 
C 327 645 946 -73 1955 -73 
z
M 866 2027 
C 902 2570 1286 3055 1900 3055 
C 2482 3055 2855 2618 2855 2027 
L 866 2027 
z
" transform="scale(0.015625)"/>
     </defs>
     <use xlink:href="#Inter-Regular-53"/>
     <use xlink:href="#Inter-Regular-6f" x="63.778427"/>
     <use xlink:href="#Inter-Regular-6e" x="123.437531"/>
     <use xlink:href="#Inter-Regular-6e" x="181.960266"/>
     <use xlink:href="#Inter-Regular-65" x="240.483002"/>
     <use xlink:href="#Inter-Regular-74" x="298.721649"/>
     <use xlink:href="#Inter-Regular-2d" x="335.085297"/>
     <use xlink:href="#Inter-Regular-34" x="381.108032"/>
    </g>
   </g>
   <g id="legend_1">
    <g id="patch_29">
     <path d="M 51.86 25.024142 
L 71.86 25.024142 
L 71.86 18.024142 
L 51.86 18.024142 
z
" style="fill: #3c8829"/>
    </g>
    <g id="text_30">
     <!-- Correct Answers -->
     <g transform="translate(79.86 25.024142) scale(0.1 -0.1)">
      <defs>
       <path id="Inter-Regular-72" d="M 491 0 
L 1027 0 
L 1027 2209 
C 1027 2682 1400 3027 1909 3027 
C 2052 3027 2200 3000 2236 2991 
L 2236 3536 
C 2175 3541 2034 3545 1955 3545 
C 1536 3545 1173 3309 1046 2964 
L 1009 2964 
L 1009 3491 
L 491 3491 
L 491 0 
z
" transform="scale(0.015625)"/>
       <path id="Inter-Regular-63" d="M 1909 -73 
C 2682 -73 3191 400 3282 1018 
L 2746 1018 
C 2646 636 2327 409 1909 409 
C 1273 409 864 936 864 1745 
C 864 2536 1282 3055 1909 3055 
C 2382 3055 2664 2764 2746 2445 
L 3282 2445 
C 3191 3100 2636 3536 1900 3536 
C 955 3536 327 2791 327 1727 
C 327 682 927 -73 1909 -73 
z
" transform="scale(0.015625)"/>
       <path id="Inter-Regular-20" transform="scale(0.015625)"/>
       <path id="Inter-Regular-41" d="M 755 0 
L 1223 1318 
L 3105 1318 
L 3573 0 
L 4164 0 
L 2455 4655 
L 1873 4655 
L 164 0 
L 755 0 
z
M 1400 1818 
L 2146 3918 
L 2182 3918 
L 2927 1818 
L 1400 1818 
z
" transform="scale(0.015625)"/>
       <path id="Inter-Regular-73" d="M 2964 2709 
C 2796 3205 2418 3536 1727 3536 
C 991 3536 446 3118 446 2527 
C 446 2045 732 1723 1373 1573 
L 1955 1436 
C 2307 1355 2473 1186 2473 945 
C 2473 645 2155 400 1655 400 
C 1216 400 941 589 846 964 
L 336 836 
C 461 243 950 -73 1664 -73 
C 2475 -73 3027 370 3027 973 
C 3027 1459 2723 1766 2100 1918 
L 1582 2045 
C 1168 2148 982 2286 982 2555 
C 982 2855 1300 3073 1727 3073 
C 2196 3073 2389 2814 2482 2573 
L 2964 2709 
z
" transform="scale(0.015625)"/>
       <path id="Inter-Regular-77" d="M 1282 0 
L 1809 0 
L 2573 2682 
L 2627 2682 
L 3391 0 
L 3918 0 
L 4982 3491 
L 4418 3491 
L 3664 827 
L 3627 827 
L 2891 3491 
L 2318 3491 
L 1573 818 
L 1536 818 
L 782 3491 
L 218 3491 
L 1282 0 
z
" transform="scale(0.015625)"/>
      </defs>
      <use xlink:href="#Inter-Regular-43"/>
      <use xlink:href="#Inter-Regular-6f" x="72.727295"/>
      <use xlink:href="#Inter-Regular-72" x="132.386398"/>
      <use xlink:href="#Inter-Regular-72" x="169.60231"/>
      <use xlink:href="#Inter-Regular-65" x="206.818222"/>
      <use xlink:href="#Inter-Regular-63" x="265.05687"/>
      <use xlink:href="#Inter-Regular-74" x="320.880737"/>
      <use xlink:href="#Inter-Regular-20" x="357.244385"/>
      <use xlink:href="#Inter-Regular-41" x="385.369385"/>
      <use xlink:href="#Inter-Regular-6e" x="452.983032"/>
      <use xlink:href="#Inter-Regular-73" x="511.505768"/>
      <use xlink:href="#Inter-Regular-77" x="563.778503"/>
      <use xlink:href="#Inter-Regular-65" x="645.028519"/>
      <use xlink:href="#Inter-Regular-72" x="703.267166"/>
      <use xlink:href="#Inter-Regular-73" x="740.483078"/>
     </g>
    </g>
    <g id="patch_30">
     <path d="M 179.138125 25.024142 
L 199.138125 25.024142 
L 199.138125 18.024142 
L 179.138125 18.024142 
z
" style="fill: #202446"/>
    </g>
    <g id="text_31">
     <!-- Successful Requests -->
     <g transform="translate(207.138125 25.024142) scale(0.1 -0.1)">
      <defs>
       <path id="Inter-Regular-66" d="M 2046 3491 
L 1264 3491 
L 1264 3845 
C 1264 4191 1409 4373 1764 4373 
C 1918 4373 2009 4336 2064 4318 
L 2218 4782 
C 2136 4818 1973 4873 1709 4873 
C 1209 4873 727 4573 727 3973 
L 727 3491 
L 164 3491 
L 164 3036 
L 727 3036 
L 727 0 
L 1264 0 
L 1264 3036 
L 2046 3036 
L 2046 3491 
z
" transform="scale(0.015625)"/>
       <path id="Inter-Regular-6c" d="M 1027 4655 
L 491 4655 
L 491 0 
L 1027 0 
L 1027 4655 
z
" transform="scale(0.015625)"/>
       <path id="Inter-Regular-52" d="M 564 0 
L 1127 0 
L 1127 1818 
L 2146 1818 
C 2186 1818 2225 1818 2264 1820 
L 3246 0 
L 3900 0 
L 2848 1923 
C 3441 2125 3718 2609 3718 3227 
C 3718 4050 3227 4655 2136 4655 
L 564 4655 
L 564 0 
z
M 1127 2327 
L 1127 4155 
L 2118 4155 
C 2873 4155 3164 3786 3164 3227 
C 3164 2668 2873 2327 2127 2327 
L 1127 2327 
z
" transform="scale(0.015625)"/>
       <path id="Inter-Regular-71" d="M 2873 -1309 
L 3409 -1309 
L 3409 3491 
L 2891 3491 
L 2891 2936 
L 2827 2936 
C 2709 3118 2500 3536 1818 3536 
C 936 3536 327 2836 327 1736 
C 327 627 936 -73 1809 -73 
C 2482 -73 2709 345 2827 536 
L 2873 536 
L 2873 -1309 
z
M 1882 409 
C 1209 409 864 1000 864 1745 
C 864 2482 1200 3055 1882 3055 
C 2536 3055 2882 2527 2882 1745 
C 2882 955 2527 409 1882 409 
z
" transform="scale(0.015625)"/>
      </defs>
      <use xlink:href="#Inter-Regular-53"/>
      <use xlink:href="#Inter-Regular-75" x="63.778427"/>
      <use xlink:href="#Inter-Regular-63" x="121.875031"/>
      <use xlink:href="#Inter-Regular-63" x="177.698898"/>
      <use xlink:href="#Inter-Regular-65" x="233.522766"/>
      <use xlink:href="#Inter-Regular-73" x="291.761414"/>
      <use xlink:href="#Inter-Regular-73" x="344.034149"/>
      <use xlink:href="#Inter-Regular-66" x="396.306885"/>
      <use xlink:href="#Inter-Regular-75" x="432.386429"/>
      <use xlink:href="#Inter-Regular-6c" x="490.483032"/>
      <use xlink:href="#Inter-Regular-20" x="514.20462"/>
      <use xlink:href="#Inter-Regular-52" x="542.32962"/>
      <use xlink:href="#Inter-Regular-65" x="606.250092"/>
      <use xlink:href="#Inter-Regular-71" x="664.488739"/>
      <use xlink:href="#Inter-Regular-75" x="725.426254"/>
      <use xlink:href="#Inter-Regular-65" x="783.522858"/>
      <use xlink:href="#Inter-Regular-73" x="841.761505"/>
      <use xlink:href="#Inter-Regular-74" x="894.034241"/>
      <use xlink:href="#Inter-Regular-73" x="930.397888"/>
     </g>
    </g>
   </g>
  </g>
 </g>
 <defs>
  <clipPath id="pf21ffd0760">
   <rect x="42.86" y="66.784" width="810.34" height="265.336"/>
  </clipPath>
 </defs>
</svg>
