<?xml version="1.0" encoding="utf-8" standalone="no"?>
<!DOCTYPE svg PUBLIC "-//W3C//DTD SVG 1.1//EN"
  "http://www.w3.org/Graphics/SVG/1.1/DTD/svg11.dtd">
<svg xmlns:xlink="http://www.w3.org/1999/xlink" width="864pt" height="360pt" viewBox="0 0 864 360" xmlns="http://www.w3.org/2000/svg" version="1.1">
 <metadata>
  <rdf:RDF xmlns:dc="http://purl.org/dc/elements/1.1/" xmlns:cc="http://creativecommons.org/ns#" xmlns:rdf="http://www.w3.org/1999/02/22-rdf-syntax-ns#">
   <cc:Work>
    <dc:type rdf:resource="http://purl.org/dc/dcmitype/StillImage"/>
    <dc:date>2026-05-18T20:41:09.835529</dc:date>
    <dc:format>image/svg+xml</dc:format>
    <dc:creator>
     <cc:Agent>
      <dc:title>Matplotlib v3.7.5, https://matplotlib.org/</dc:title>
     </cc:Agent>
    </dc:creator>
   </cc:Work>
  </rdf:RDF>
 </metadata>
 <defs>
  <style type="text/css">*{stroke-linejoin: round; stroke-linecap: butt}</style>
 </defs>
 <g id="figure_1">
  <g id="patch_1">
   <path d="M 0 360 
L 864 360 
L 864 0 
L 0 0 
z
" style="fill: #ffffff"/>
  </g>
  <g id="axes_1">
   <g id="patch_2">
    <path d="M 42.86 318.04 
L 853.2 318.04 
L 853.2 66.784 
L 42.86 66.784 
z
" style="fill: #ffffff"/>
   </g>
   <g id="patch_3">
    <path d="M 79.693636 318.04 
L 132.53514 318.04 
L 132.53514 89.625455 
L 79.693636 89.625455 
z
" clip-path="url(#pc616943da0)" style="fill: #3c8829"/>
   </g>
   <g id="patch_4">
    <path d="M 141.860111 318.04 
L 194.701615 318.04 
L 194.701615 112.466909 
L 141.860111 112.466909 
z
" clip-path="url(#pc616943da0)" style="fill: #3c8829"/>
   </g>
   <g id="patch_5">
    <path d="M 204.026586 318.04 
L 256.86809 318.04 
L 256.86809 158.149818 
L 204.026586 158.149818 
z
" clip-path="url(#pc616943da0)" style="fill: #3c8829"/>
   </g>
   <g id="patch_6">
    <path d="M 266.193061 318.04 
L 319.034565 318.04 
L 319.034565 318.04 
L 266.193061 318.04 
z
" clip-path="url(#pc616943da0)" style="fill: #3c8829"/>
   </g>
   <g id="patch_7">
    <path d="M 328.359536 318.04 
L 381.20104 318.04 
L 381.20104 89.625455 
L 328.359536 89.625455 
z
" clip-path="url(#pc616943da0)" style="fill: #3c8829"/>
   </g>
   <g id="patch_8">
    <path d="M 390.526011 318.04 
L 443.367514 318.04 
L 443.367514 318.04 
L 390.526011 318.04 
z
" clip-path="url(#pc616943da0)" style="fill: #3c8829"/>
   </g>
   <g id="patch_9">
    <path d="M 452.692486 318.04 
L 505.533989 318.04 
L 505.533989 89.625455 
L 452.692486 89.625455 
z
" clip-path="url(#pc616943da0)" style="fill: #3c8829"/>
   </g>
   <g id="patch_10">
    <path d="M 514.85896 318.04 
L 567.700464 318.04 
L 567.700464 318.04 
L 514.85896 318.04 
z
" clip-path="url(#pc616943da0)" style="fill: #3c8829"/>
   </g>
   <g id="patch_11">
    <path d="M 577.025435 318.04 
L 629.866939 318.04 
L 629.866939 89.625455 
L 577.025435 89.625455 
z
" clip-path="url(#pc616943da0)" style="fill: #3c8829"/>
   </g>
   <g id="patch_12">
    <path d="M 639.19191 318.04 
L 692.033414 318.04 
L 692.033414 89.625455 
L 639.19191 89.625455 
z
" clip-path="url(#pc616943da0)" style="fill: #3c8829"/>
   </g>
   <g id="patch_13">
    <path d="M 701.358385 318.04 
L 754.199889 318.04 
L 754.199889 203.832727 
L 701.358385 203.832727 
z
" clip-path="url(#pc616943da0)" style="fill: #3c8829"/>
   </g>
   <g id="patch_14">
    <path d="M 763.52486 318.04 
L 816.366364 318.04 
L 816.366364 89.625455 
L 763.52486 89.625455 
z
" clip-path="url(#pc616943da0)" style="fill: #3c8829"/>
   </g>
   <g id="patch_15">
    <path d="M 79.693636 89.625455 
L 132.53514 89.625455 
L 132.53514 89.625455 
L 79.693636 89.625455 
z
" clip-path="url(#pc616943da0)" style="fill: #202446"/>
   </g>
   <g id="patch_16">
    <path d="M 141.860111 112.466909 
L 194.701615 112.466909 
L 194.701615 89.625455 
L 141.860111 89.625455 
z
" clip-path="url(#pc616943da0)" style="fill: #202446"/>
   </g>
   <g id="patch_17">
    <path d="M 204.026586 158.149818 
L 256.86809 158.149818 
L 256.86809 89.625455 
L 204.026586 89.625455 
z
" clip-path="url(#pc616943da0)" style="fill: #202446"/>
   </g>
   <g id="patch_18">
    <path d="M 266.193061 318.04 
L 319.034565 318.04 
L 319.034565 89.625455 
L 266.193061 89.625455 
z
" clip-path="url(#pc616943da0)" style="fill: #202446"/>
   </g>
   <g id="patch_19">
    <path d="M 328.359536 89.625455 
L 381.20104 89.625455 
L 381.20104 89.625455 
L 328.359536 89.625455 
z
" clip-path="url(#pc616943da0)" style="fill: #202446"/>
   </g>
   <g id="patch_20">
    <path d="M 390.526011 318.04 
L 443.367514 318.04 
L 443.367514 318.04 
L 390.526011 318.04 
z
" clip-path="url(#pc616943da0)" style="fill: #202446"/>
   </g>
   <g id="patch_21">
    <path d="M 452.692486 89.625455 
L 505.533989 89.625455 
L 505.533989 89.625455 
L 452.692486 89.625455 
z
" clip-path="url(#pc616943da0)" style="fill: #202446"/>
   </g>
   <g id="patch_22">
    <path d="M 514.85896 318.04 
L 567.700464 318.04 
L 567.700464 295.198545 
L 514.85896 295.198545 
z
" clip-path="url(#pc616943da0)" style="fill: #202446"/>
   </g>
   <g id="patch_23">
    <path d="M 577.025435 89.625455 
L 629.866939 89.625455 
L 629.866939 89.625455 
L 577.025435 89.625455 
z
" clip-path="url(#pc616943da0)" style="fill: #202446"/>
   </g>
   <g id="patch_24">
    <path d="M 639.19191 89.625455 
L 692.033414 89.625455 
L 692.033414 89.625455 
L 639.19191 89.625455 
z
" clip-path="url(#pc616943da0)" style="fill: #202446"/>
   </g>
   <g id="patch_25">
    <path d="M 701.358385 203.832727 
L 754.199889 203.832727 
L 754.199889 135.308364 
L 701.358385 135.308364 
z
" clip-path="url(#pc616943da0)" style="fill: #202446"/>
   </g>
   <g id="patch_26">
    <path d="M 763.52486 89.625455 
L 816.366364 89.625455 
L 816.366364 89.625455 
L 763.52486 89.625455 
z
" clip-path="url(#pc616943da0)" style="fill: #202446"/>
   </g>
   <g id="matplotlib.axis_1">
    <g id="xtick_1">
     <g id="line2d_1">
      <defs>
       <path id="me4e4d05482" d="M 0 0 
L 0 3.5 
" style="stroke: #000000; stroke-width: 0.8"/>
      </defs>
      <g>
       <use xlink:href="#me4e4d05482" x="106.114388" y="318.04" style="stroke: #000000; stroke-width: 0.8"/>
      </g>
     </g>
     <g id="text_1">
      <!-- 1-1 -->
      <g transform="translate(99.167513 332.313438) scale(0.1 -0.1)">
       <defs>
        <path id="Inter-Regular-31" d="M 2118 4655 
L 1555 4655 
L 391 3882 
L 391 3309 
L 1527 4064 
L 1555 4064 
L 1555 0 
L 2118 0 
L 2118 4655 
z
" transform="scale(0.015625)"/>
        <path id="Inter-Regular-2d" d="M 2491 2245 
L 455 2245 
L 455 1745 
L 2491 1745 
L 2491 2245 
z
" transform="scale(0.015625)"/>
       </defs>
       <use xlink:href="#Inter-Regular-31"/>
       <use xlink:href="#Inter-Regular-2d" x="46.448868"/>
       <use xlink:href="#Inter-Regular-31" x="92.471603"/>
      </g>
     </g>
    </g>
    <g id="xtick_2">
     <g id="line2d_2">
      <g>
       <use xlink:href="#me4e4d05482" x="168.280863" y="318.04" style="stroke: #000000; stroke-width: 0.8"/>
      </g>
     </g>
     <g id="text_2">
      <!-- 1-2 -->
      <g transform="translate(160.630863 332.313438) scale(0.1 -0.1)">
       <defs>
        <path id="Inter-Regular-32" d="M 482 0 
L 3418 0 
L 3418 500 
L 1255 500 
L 1255 536 
L 2300 1655 
C 3100 2511 3336 2911 3336 3427 
C 3336 4145 2755 4718 1936 4718 
C 1121 4718 500 4164 500 3345 
L 1036 3345 
C 1036 3875 1380 4227 1918 4227 
C 2423 4227 2809 3918 2809 3427 
C 2809 2998 2557 2680 2018 2091 
L 482 409 
L 482 0 
z
" transform="scale(0.015625)"/>
       </defs>
       <use xlink:href="#Inter-Regular-31"/>
       <use xlink:href="#Inter-Regular-2d" x="46.448868"/>
       <use xlink:href="#Inter-Regular-32" x="92.471603"/>
      </g>
     </g>
    </g>
    <g id="xtick_3">
     <g id="line2d_3">
      <g>
       <use xlink:href="#me4e4d05482" x="230.447338" y="318.04" style="stroke: #000000; stroke-width: 0.8"/>
      </g>
     </g>
     <g id="text_3">
      <!-- 1-3 -->
      <g transform="translate(222.641088 332.313438) scale(0.1 -0.1)">
       <defs>
        <path id="Inter-Regular-33" d="M 2055 -64 
C 2957 -64 3627 502 3627 1264 
C 3627 1855 3277 2284 2691 2382 
L 2691 2418 
C 3161 2561 3455 2948 3455 3473 
C 3455 4132 2934 4718 2073 4718 
C 1268 4718 600 4223 573 3491 
L 1118 3491 
C 1139 3955 1580 4227 2064 4227 
C 2577 4227 2909 3916 2909 3445 
C 2909 2955 2525 2636 1973 2636 
L 1600 2636 
L 1600 2136 
L 1973 2136 
C 2680 2136 3073 1777 3073 1264 
C 3073 770 2643 436 2046 436 
C 1507 436 1080 714 1046 1164 
L 473 1164 
C 507 432 1152 -64 2055 -64 
z
" transform="scale(0.015625)"/>
       </defs>
       <use xlink:href="#Inter-Regular-31"/>
       <use xlink:href="#Inter-Regular-2d" x="46.448868"/>
       <use xlink:href="#Inter-Regular-33" x="92.471603"/>
      </g>
     </g>
    </g>
    <g id="xtick_4">
     <g id="line2d_4">
      <g>
       <use xlink:href="#me4e4d05482" x="292.613813" y="318.04" style="stroke: #000000; stroke-width: 0.8"/>
      </g>
     </g>
     <g id="text_4">
      <!-- 1-4 -->
      <g transform="translate(284.779438 332.313438) scale(0.1 -0.1)">
       <defs>
        <path id="Inter-Regular-34" d="M 373 955 
L 2564 955 
L 2564 0 
L 3100 0 
L 3100 955 
L 3736 955 
L 3736 1455 
L 3100 1455 
L 3100 4655 
L 2418 4655 
L 373 1418 
L 373 955 
z
M 2564 1455 
L 982 1455 
L 982 1491 
L 2527 3936 
L 2564 3936 
L 2564 1455 
z
" transform="scale(0.015625)"/>
       </defs>
       <use xlink:href="#Inter-Regular-31"/>
       <use xlink:href="#Inter-Regular-2d" x="46.448868"/>
       <use xlink:href="#Inter-Regular-34" x="92.471603"/>
      </g>
     </g>
    </g>
    <g id="xtick_5">
     <g id="line2d_5">
      <g>
       <use xlink:href="#me4e4d05482" x="354.780288" y="318.04" style="stroke: #000000; stroke-width: 0.8"/>
      </g>
     </g>
     <g id="text_5">
      <!-- 1-5 -->
      <g transform="translate(347.116225 332.313438) scale(0.1 -0.1)">
       <defs>
        <path id="Inter-Regular-35" d="M 1936 -64 
C 2823 -64 3473 591 3473 1482 
C 3473 2384 2846 3045 1991 3045 
C 1677 3045 1373 2934 1182 2782 
L 1155 2782 
L 1318 4155 
L 3264 4155 
L 3264 4655 
L 846 4655 
L 564 2364 
L 1091 2300 
C 1284 2439 1614 2539 1900 2536 
C 2493 2532 2927 2082 2927 1473 
C 2927 875 2509 436 1936 436 
C 1459 436 1080 743 1036 1164 
L 491 1164 
C 525 455 1136 -64 1936 -64 
z
" transform="scale(0.015625)"/>
       </defs>
       <use xlink:href="#Inter-Regular-31"/>
       <use xlink:href="#Inter-Regular-2d" x="46.448868"/>
       <use xlink:href="#Inter-Regular-35" x="92.471603"/>
      </g>
     </g>
    </g>
    <g id="xtick_6">
     <g id="line2d_6">
      <g>
       <use xlink:href="#me4e4d05482" x="416.946763" y="318.04" style="stroke: #000000; stroke-width: 0.8"/>
      </g>
     </g>
     <g id="text_6">
      <!-- 2-1 -->
      <g transform="translate(409.296763 332.313438) scale(0.1 -0.1)">
       <use xlink:href="#Inter-Regular-32"/>
       <use xlink:href="#Inter-Regular-2d" x="60.511383"/>
       <use xlink:href="#Inter-Regular-31" x="106.534119"/>
      </g>
     </g>
    </g>
    <g id="xtick_7">
     <g id="line2d_7">
      <g>
       <use xlink:href="#me4e4d05482" x="479.113237" y="318.04" style="stroke: #000000; stroke-width: 0.8"/>
      </g>
     </g>
     <g id="text_7">
      <!-- 3-1 -->
      <g transform="translate(471.306987 332.313438) scale(0.1 -0.1)">
       <use xlink:href="#Inter-Regular-33"/>
       <use xlink:href="#Inter-Regular-2d" x="63.636383"/>
       <use xlink:href="#Inter-Regular-31" x="109.659119"/>
      </g>
     </g>
    </g>
    <g id="xtick_8">
     <g id="line2d_8">
      <g>
       <use xlink:href="#me4e4d05482" x="541.279712" y="318.04" style="stroke: #000000; stroke-width: 0.8"/>
      </g>
     </g>
     <g id="text_8">
      <!-- 3-2 -->
      <g transform="translate(532.770337 332.313438) scale(0.1 -0.1)">
       <use xlink:href="#Inter-Regular-33"/>
       <use xlink:href="#Inter-Regular-2d" x="63.636383"/>
       <use xlink:href="#Inter-Regular-32" x="109.659119"/>
      </g>
     </g>
    </g>
    <g id="xtick_9">
     <g id="line2d_9">
      <g>
       <use xlink:href="#me4e4d05482" x="603.446187" y="318.04" style="stroke: #000000; stroke-width: 0.8"/>
      </g>
     </g>
     <g id="text_9">
      <!-- 5-1 -->
      <g transform="translate(595.782125 332.313438) scale(0.1 -0.1)">
       <use xlink:href="#Inter-Regular-35"/>
       <use xlink:href="#Inter-Regular-2d" x="60.795471"/>
       <use xlink:href="#Inter-Regular-31" x="106.818207"/>
      </g>
     </g>
    </g>
    <g id="xtick_10">
     <g id="line2d_10">
      <g>
       <use xlink:href="#me4e4d05482" x="665.612662" y="318.04" style="stroke: #000000; stroke-width: 0.8"/>
      </g>
     </g>
     <g id="text_10">
      <!-- 5-2 -->
      <g transform="translate(657.245475 332.313438) scale(0.1 -0.1)">
       <use xlink:href="#Inter-Regular-35"/>
       <use xlink:href="#Inter-Regular-2d" x="60.795471"/>
       <use xlink:href="#Inter-Regular-32" x="106.818207"/>
      </g>
     </g>
    </g>
    <g id="xtick_11">
     <g id="line2d_11">
      <g>
       <use xlink:href="#me4e4d05482" x="727.779137" y="318.04" style="stroke: #000000; stroke-width: 0.8"/>
      </g>
     </g>
     <g id="text_11">
      <!-- 5-3 -->
      <g transform="translate(719.255699 332.313438) scale(0.1 -0.1)">
       <use xlink:href="#Inter-Regular-35"/>
       <use xlink:href="#Inter-Regular-2d" x="60.795471"/>
       <use xlink:href="#Inter-Regular-33" x="106.818207"/>
      </g>
     </g>
    </g>
    <g id="xtick_12">
     <g id="line2d_12">
      <g>
       <use xlink:href="#me4e4d05482" x="789.945612" y="318.04" style="stroke: #000000; stroke-width: 0.8"/>
      </g>
     </g>
     <g id="text_12">
      <!-- 5-4 -->
      <g transform="translate(781.394049 332.313438) scale(0.1 -0.1)">
       <use xlink:href="#Inter-Regular-35"/>
       <use xlink:href="#Inter-Regular-2d" x="60.795471"/>
       <use xlink:href="#Inter-Regular-34" x="106.818207"/>
      </g>
     </g>
    </g>
    <g id="text_13">
     <!-- Experiment ID -->
     <g transform="translate(415.01125 345.85875) scale(0.1 -0.1)">
      <defs>
       <path id="Inter-Regular-45" d="M 564 0 
L 3409 0 
L 3409 500 
L 1127 500 
L 1127 2082 
L 3227 2082 
L 3227 2582 
L 1127 2582 
L 1127 4155 
L 3373 4155 
L 3373 4655 
L 564 4655 
L 564 0 
z
" transform="scale(0.015625)"/>
       <path id="Inter-Regular-78" d="M 891 3491 
L 273 3491 
L 1382 1745 
L 273 0 
L 891 0 
L 1727 1355 
L 2564 0 
L 3182 0 
L 2055 1745 
L 3182 3491 
L 2564 3491 
L 1727 2064 
L 891 3491 
z
" transform="scale(0.015625)"/>
       <path id="Inter-Regular-70" d="M 491 -1309 
L 1027 -1309 
L 1027 536 
L 1073 536 
C 1191 345 1418 -73 2091 -73 
C 2964 -73 3573 627 3573 1736 
C 3573 2836 2964 3536 2082 3536 
C 1400 3536 1191 3118 1073 2936 
L 1009 2936 
L 1009 3491 
L 491 3491 
L 491 -1309 
z
M 1018 1745 
C 1018 2527 1364 3055 2018 3055 
C 2700 3055 3036 2482 3036 1745 
C 3036 1000 2691 409 2018 409 
C 1373 409 1018 955 1018 1745 
z
" transform="scale(0.015625)"/>
       <path id="Inter-Regular-65" d="M 1955 -73 
C 2664 -73 3182 282 3346 809 
L 2827 955 
C 2691 591 2375 409 1955 409 
C 1325 409 891 816 866 1564 
L 3400 1564 
L 3400 1791 
C 3400 3091 2627 3536 1900 3536 
C 955 3536 327 2791 327 1718 
C 327 645 946 -73 1955 -73 
z
M 866 2027 
C 902 2570 1286 3055 1900 3055 
C 2482 3055 2855 2618 2855 2027 
L 866 2027 
z
" transform="scale(0.015625)"/>
       <path id="Inter-Regular-72" d="M 491 0 
L 1027 0 
L 1027 2209 
C 1027 2682 1400 3027 1909 3027 
C 2052 3027 2200 3000 2236 2991 
L 2236 3536 
C 2175 3541 2034 3545 1955 3545 
C 1536 3545 1173 3309 1046 2964 
L 1009 2964 
L 1009 3491 
L 491 3491 
L 491 0 
z
" transform="scale(0.015625)"/>
       <path id="Inter-Regular-69" d="M 491 0 
L 1027 0 
L 1027 3491 
L 491 3491 
L 491 0 
z
M 764 4073 
C 973 4073 1146 4236 1146 4436 
C 1146 4636 973 4800 764 4800 
C 555 4800 382 4636 382 4436 
C 382 4236 555 4073 764 4073 
z
" transform="scale(0.015625)"/>
       <path id="Inter-Regular-6d" d="M 491 0 
L 1027 0 
L 1027 2182 
C 1027 2693 1400 3055 1818 3055 
C 2225 3055 2509 2789 2509 2391 
L 2509 0 
L 3055 0 
L 3055 2273 
C 3055 2723 3336 3055 3827 3055 
C 4209 3055 4536 2852 4536 2336 
L 4536 0 
L 5073 0 
L 5073 2336 
C 5073 3157 4632 3536 4009 3536 
C 3509 3536 3143 3307 2964 2945 
L 2927 2945 
C 2755 3318 2450 3536 1991 3536 
C 1536 3536 1200 3318 1055 2945 
L 1009 2945 
L 1009 3491 
L 491 3491 
L 491 0 
z
" transform="scale(0.015625)"/>
       <path id="Inter-Regular-6e" d="M 1027 2100 
C 1027 2709 1405 3055 1918 3055 
C 2416 3055 2718 2730 2718 2182 
L 2718 0 
L 3255 0 
L 3255 2218 
C 3255 3109 2780 3536 2073 3536 
C 1546 3536 1218 3300 1055 2945 
L 1009 2945 
L 1009 3491 
L 491 3491 
L 491 0 
L 1027 0 
L 1027 2100 
z
" transform="scale(0.015625)"/>
       <path id="Inter-Regular-74" d="M 2009 3491 
L 1264 3491 
L 1264 4327 
L 727 4327 
L 727 3491 
L 200 3491 
L 200 3036 
L 727 3036 
L 727 855 
C 727 245 1218 -45 1673 -45 
C 1873 -45 2000 -9 2073 18 
L 1964 500 
C 1918 491 1846 473 1727 473 
C 1491 473 1264 545 1264 1000 
L 1264 3036 
L 2009 3036 
L 2009 3491 
z
" transform="scale(0.015625)"/>
       <path id="Inter-Regular-20" transform="scale(0.015625)"/>
       <path id="Inter-Regular-49" d="M 1127 4655 
L 564 4655 
L 564 0 
L 1127 0 
L 1127 4655 
z
" transform="scale(0.015625)"/>
       <path id="Inter-Regular-44" d="M 2000 0 
C 3418 0 4218 882 4218 2336 
C 4218 3782 3418 4655 2064 4655 
L 564 4655 
L 564 0 
L 2000 0 
z
M 1127 500 
L 1127 4155 
L 2027 4155 
C 3118 4155 3673 3464 3673 2336 
C 3673 1200 3118 500 1964 500 
L 1127 500 
z
" transform="scale(0.015625)"/>
      </defs>
      <use xlink:href="#Inter-Regular-45"/>
      <use xlink:href="#Inter-Regular-78" x="59.801147"/>
      <use xlink:href="#Inter-Regular-70" x="113.778427"/>
      <use xlink:href="#Inter-Regular-65" x="174.715942"/>
      <use xlink:href="#Inter-Regular-72" x="232.95459"/>
      <use xlink:href="#Inter-Regular-69" x="270.170502"/>
      <use xlink:href="#Inter-Regular-6d" x="293.89209"/>
      <use xlink:href="#Inter-Regular-65" x="380.823929"/>
      <use xlink:href="#Inter-Regular-6e" x="439.062576"/>
      <use xlink:href="#Inter-Regular-74" x="497.585312"/>
      <use xlink:href="#Inter-Regular-20" x="533.948959"/>
      <use xlink:href="#Inter-Regular-49" x="562.073959"/>
      <use xlink:href="#Inter-Regular-44" x="588.494415"/>
     </g>
    </g>
   </g>
   <g id="matplotlib.axis_2">
    <g id="ytick_1">
     <g id="line2d_13">
      <defs>
       <path id="mce137905c0" d="M 0 0 
L -3.5 0 
" style="stroke: #000000; stroke-width: 0.8"/>
      </defs>
      <g>
       <use xlink:href="#mce137905c0" x="42.86" y="318.04" style="stroke: #000000; stroke-width: 0.8"/>
      </g>
     </g>
     <g id="text_14">
      <!-- 0 -->
      <g transform="translate(29.61 321.676719) scale(0.1 -0.1)">
       <defs>
        <path id="Inter-Regular-30" d="M 2000 -64 
C 3027 -64 3618 807 3618 2327 
C 3618 3836 3018 4718 2000 4718 
C 982 4718 382 3836 382 2327 
C 382 807 973 -64 2000 -64 
z
M 2000 436 
C 1323 436 927 1116 927 2327 
C 927 3536 1327 4227 2000 4227 
C 2673 4227 3073 3536 3073 2327 
C 3073 1116 2677 436 2000 436 
z
" transform="scale(0.015625)"/>
       </defs>
       <use xlink:href="#Inter-Regular-30"/>
      </g>
     </g>
    </g>
    <g id="ytick_2">
     <g id="line2d_14">
      <g>
       <use xlink:href="#mce137905c0" x="42.86" y="272.357091" style="stroke: #000000; stroke-width: 0.8"/>
      </g>
     </g>
     <g id="text_15">
      <!-- 2 -->
      <g transform="translate(29.808438 275.99381) scale(0.1 -0.1)">
       <use xlink:href="#Inter-Regular-32"/>
      </g>
     </g>
    </g>
    <g id="ytick_3">
     <g id="line2d_15">
      <g>
       <use xlink:href="#mce137905c0" x="42.86" y="226.674182" style="stroke: #000000; stroke-width: 0.8"/>
      </g>
     </g>
     <g id="text_16">
      <!-- 4 -->
      <g transform="translate(29.439687 230.310901) scale(0.1 -0.1)">
       <use xlink:href="#Inter-Regular-34"/>
      </g>
     </g>
    </g>
    <g id="ytick_4">
     <g id="line2d_16">
      <g>
       <use xlink:href="#mce137905c0" x="42.86" y="180.991273" style="stroke: #000000; stroke-width: 0.8"/>
      </g>
     </g>
     <g id="text_17">
      <!-- 6 -->
      <g transform="translate(29.624063 184.627991) scale(0.1 -0.1)">
       <defs>
        <path id="Inter-Regular-36" d="M 2027 -64 
C 2968 -75 3582 634 3582 1500 
C 3582 2400 2916 3045 2118 3045 
C 1639 3045 1227 2811 973 2427 
L 936 2427 
C 939 3561 1380 4218 2100 4218 
C 2591 4218 2886 3909 2991 3491 
L 3546 3491 
C 3432 4214 2882 4718 2100 4718 
C 1052 4718 409 3791 409 2145 
C 409 425 1264 -55 2027 -64 
z
M 2027 436 
C 1443 436 1016 934 1018 1491 
C 1021 2048 1468 2545 2046 2545 
C 2616 2545 3036 2077 3036 1500 
C 3036 909 2598 436 2027 436 
z
" transform="scale(0.015625)"/>
       </defs>
       <use xlink:href="#Inter-Regular-36"/>
      </g>
     </g>
    </g>
    <g id="ytick_5">
     <g id="line2d_17">
      <g>
       <use xlink:href="#mce137905c0" x="42.86" y="135.308364" style="stroke: #000000; stroke-width: 0.8"/>
      </g>
     </g>
     <g id="text_18">
      <!-- 8 -->
      <g transform="translate(29.694375 138.945082) scale(0.1 -0.1)">
       <defs>
        <path id="Inter-Regular-38" d="M 1973 -64 
C 2902 -64 3550 480 3555 1236 
C 3550 1825 3157 2325 2655 2418 
L 2655 2445 
C 3091 2559 3377 2986 3382 3482 
C 3377 4191 2782 4718 1973 4718 
C 1155 4718 559 4191 564 3482 
C 559 2986 846 2559 1291 2445 
L 1291 2418 
C 780 2325 386 1825 391 1236 
C 386 480 1034 -64 1973 -64 
z
M 1973 436 
C 1334 436 941 764 946 1264 
C 941 1789 1375 2164 1973 2164 
C 2561 2164 2996 1789 3000 1264 
C 2996 764 2602 436 1973 436 
z
M 1973 2645 
C 1464 2645 1105 2964 1109 3445 
C 1105 3918 1450 4227 1973 4227 
C 2486 4227 2832 3918 2836 3445 
C 2832 2964 2473 2645 1973 2645 
z
" transform="scale(0.015625)"/>
       </defs>
       <use xlink:href="#Inter-Regular-38"/>
      </g>
     </g>
    </g>
    <g id="ytick_6">
     <g id="line2d_18">
      <g>
       <use xlink:href="#mce137905c0" x="42.86" y="89.625455" style="stroke: #000000; stroke-width: 0.8"/>
      </g>
     </g>
     <g id="text_19">
      <!-- 10 -->
      <g transform="translate(24.964687 93.262173) scale(0.1 -0.1)">
       <use xlink:href="#Inter-Regular-31"/>
       <use xlink:href="#Inter-Regular-30" x="46.448868"/>
      </g>
     </g>
    </g>
    <g id="text_20">
     <!-- Count -->
     <g transform="translate(18.919375 206.68075) rotate(-90) scale(0.1 -0.1)">
      <defs>
       <path id="Inter-Regular-43" d="M 4309 3200 
C 4136 4155 3373 4718 2436 4718 
C 1246 4718 382 3800 382 2327 
C 382 855 1246 -64 2436 -64 
C 3373 -64 4136 500 4309 1455 
L 3746 1455 
C 3609 809 3055 464 2436 464 
C 1591 464 927 1118 927 2327 
C 927 3536 1591 4191 2436 4191 
C 3055 4191 3609 3845 3746 3200 
L 4309 3200 
z
" transform="scale(0.015625)"/>
       <path id="Inter-Regular-6f" d="M 1909 -73 
C 2855 -73 3491 645 3491 1727 
C 3491 2818 2855 3536 1909 3536 
C 964 3536 327 2818 327 1727 
C 327 645 964 -73 1909 -73 
z
M 1909 409 
C 1191 409 864 1027 864 1727 
C 864 2427 1191 3055 1909 3055 
C 2627 3055 2955 2427 2955 1727 
C 2955 1027 2627 409 1909 409 
z
" transform="scale(0.015625)"/>
       <path id="Inter-Regular-75" d="M 2691 1427 
C 2691 773 2191 473 1791 473 
C 1346 473 1027 800 1027 1309 
L 1027 3491 
L 491 3491 
L 491 1273 
C 491 382 964 -45 1618 -45 
C 2146 -45 2491 236 2655 591 
L 2691 591 
L 2691 0 
L 3227 0 
L 3227 3491 
L 2691 3491 
L 2691 1427 
z
" transform="scale(0.015625)"/>
      </defs>
      <use xlink:href="#Inter-Regular-43"/>
      <use xlink:href="#Inter-Regular-6f" x="72.727295"/>
      <use xlink:href="#Inter-Regular-75" x="132.386398"/>
      <use xlink:href="#Inter-Regular-6e" x="190.483002"/>
      <use xlink:href="#Inter-Regular-74" x="249.005737"/>
     </g>
    </g>
   </g>
   <g id="patch_27">
    <path d="M 42.86 318.04 
L 42.86 66.784 
" style="fill: none; stroke: #000000; stroke-width: 0.8; stroke-linejoin: miter; stroke-linecap: square"/>
   </g>
   <g id="patch_28">
    <path d="M 42.86 318.04 
L 853.2 318.04 
" style="fill: none; stroke: #000000; stroke-width: 0.8; stroke-linejoin: miter; stroke-linecap: square"/>
   </g>
   <g id="text_21">
    <!-- 10/10 -->
    <g style="fill: #ffffff" transform="translate(94.704076 99.597766) scale(0.09 -0.09)">
     <defs>
      <path id="Inter-Regular-2f" d="M 2136 4873 
L 1646 4873 
L 146 -700 
L 636 -700 
L 2136 4873 
z
" transform="scale(0.015625)"/>
     </defs>
     <use xlink:href="#Inter-Regular-31"/>
     <use xlink:href="#Inter-Regular-30" x="46.448868"/>
     <use xlink:href="#Inter-Regular-2f" x="108.948883"/>
     <use xlink:href="#Inter-Regular-31" x="144.602295"/>
     <use xlink:href="#Inter-Regular-30" x="191.051163"/>
    </g>
   </g>
   <g id="text_22">
    <!-- 9/10 -->
    <g style="fill: #ffffff" transform="translate(158.967269 122.439221) scale(0.09 -0.09)">
     <defs>
      <path id="Inter-Regular-39" d="M 1964 4718 
C 1018 4730 409 4018 409 3164 
C 409 2264 1073 1618 1873 1618 
C 2355 1618 2764 1855 3018 2236 
L 3055 2236 
C 3055 1091 2609 436 1891 436 
C 1400 436 1100 745 1000 1173 
L 446 1173 
C 555 436 1109 -64 1891 -64 
C 2936 -64 3582 864 3582 2518 
C 3582 4227 2727 4709 1964 4718 
z
M 1964 4218 
C 2546 4218 2973 3718 2973 3173 
C 2973 2618 2518 2118 1946 2118 
C 1373 2118 955 2582 955 3164 
C 955 3745 1391 4218 1964 4218 
z
" transform="scale(0.015625)"/>
     </defs>
     <use xlink:href="#Inter-Regular-39"/>
     <use xlink:href="#Inter-Regular-2f" x="62.357971"/>
     <use xlink:href="#Inter-Regular-31" x="98.011383"/>
     <use xlink:href="#Inter-Regular-30" x="144.460251"/>
    </g>
   </g>
   <g id="text_23">
    <!-- 7/10 -->
    <g style="fill: #ffffff" transform="translate(221.369994 168.12213) scale(0.09 -0.09)">
     <defs>
      <path id="Inter-Regular-37" d="M 627 0 
L 1218 0 
L 3291 4127 
L 3291 4655 
L 309 4655 
L 309 4155 
L 2709 4155 
L 2709 4118 
L 627 0 
z
" transform="scale(0.015625)"/>
     </defs>
     <use xlink:href="#Inter-Regular-37"/>
     <use xlink:href="#Inter-Regular-2f" x="57.10228"/>
     <use xlink:href="#Inter-Regular-31" x="92.755692"/>
     <use xlink:href="#Inter-Regular-30" x="139.204559"/>
    </g>
   </g>
   <g id="text_24">
    <!-- 10/10 -->
    <g style="fill: #ffffff" transform="translate(343.369975 99.597766) scale(0.09 -0.09)">
     <use xlink:href="#Inter-Regular-31"/>
     <use xlink:href="#Inter-Regular-30" x="46.448868"/>
     <use xlink:href="#Inter-Regular-2f" x="108.948883"/>
     <use xlink:href="#Inter-Regular-31" x="144.602295"/>
     <use xlink:href="#Inter-Regular-30" x="191.051163"/>
    </g>
   </g>
   <g id="text_25">
    <!-- 10/10 -->
    <g style="fill: #ffffff" transform="translate(467.702925 99.597766) scale(0.09 -0.09)">
     <use xlink:href="#Inter-Regular-31"/>
     <use xlink:href="#Inter-Regular-30" x="46.448868"/>
     <use xlink:href="#Inter-Regular-2f" x="108.948883"/>
     <use xlink:href="#Inter-Regular-31" x="144.602295"/>
     <use xlink:href="#Inter-Regular-30" x="191.051163"/>
    </g>
   </g>
   <g id="text_26">
    <!-- 10/10 -->
    <g style="fill: #ffffff" transform="translate(592.035875 99.597766) scale(0.09 -0.09)">
     <use xlink:href="#Inter-Regular-31"/>
     <use xlink:href="#Inter-Regular-30" x="46.448868"/>
     <use xlink:href="#Inter-Regular-2f" x="108.948883"/>
     <use xlink:href="#Inter-Regular-31" x="144.602295"/>
     <use xlink:href="#Inter-Regular-30" x="191.051163"/>
    </g>
   </g>
   <g id="text_27">
    <!-- 10/10 -->
    <g style="fill: #ffffff" transform="translate(654.20235 99.597766) scale(0.09 -0.09)">
     <use xlink:href="#Inter-Regular-31"/>
     <use xlink:href="#Inter-Regular-30" x="46.448868"/>
     <use xlink:href="#Inter-Regular-2f" x="108.948883"/>
     <use xlink:href="#Inter-Regular-31" x="144.602295"/>
     <use xlink:href="#Inter-Regular-30" x="191.051163"/>
    </g>
   </g>
   <g id="text_28">
    <!-- 5/8 -->
    <g style="fill: #ffffff" transform="translate(720.664215 213.805039) scale(0.09 -0.09)">
     <use xlink:href="#Inter-Regular-35"/>
     <use xlink:href="#Inter-Regular-2f" x="60.795471"/>
     <use xlink:href="#Inter-Regular-38" x="96.448883"/>
    </g>
   </g>
   <g id="text_29">
    <!-- 10/10 -->
    <g style="fill: #ffffff" transform="translate(778.535299 99.597766) scale(0.09 -0.09)">
     <use xlink:href="#Inter-Regular-31"/>
     <use xlink:href="#Inter-Regular-30" x="46.448868"/>
     <use xlink:href="#Inter-Regular-2f" x="108.948883"/>
     <use xlink:href="#Inter-Regular-31" x="144.602295"/>
     <use xlink:href="#Inter-Regular-30" x="191.051163"/>
    </g>
   </g>
   <g id="text_30">
    <!-- Haiku-4-5 -->
    <g transform="translate(419.009688 60.784) scale(0.12 -0.12)">
     <defs>
      <path id="Inter-Regular-48" d="M 564 0 
L 1127 0 
L 1127 2082 
L 3609 2082 
L 3609 0 
L 4173 0 
L 4173 4655 
L 3609 4655 
L 3609 2582 
L 1127 2582 
L 1127 4655 
L 564 4655 
L 564 0 
z
" transform="scale(0.015625)"/>
      <path id="Inter-Regular-61" d="M 1518 -82 
C 2127 -82 2446 245 2555 473 
L 2582 473 
L 2582 0 
L 3118 0 
L 3118 2300 
C 3118 3409 2273 3536 1827 3536 
C 1300 3536 700 3355 427 2718 
L 936 2536 
C 1055 2791 1334 3064 1846 3064 
C 2339 3064 2582 2802 2582 2355 
L 2582 2336 
C 2582 2077 2318 2100 1682 2018 
C 1034 1934 327 1791 327 991 
C 327 309 855 -82 1518 -82 
z
M 1600 400 
C 1173 400 864 591 864 964 
C 864 1373 1236 1500 1655 1555 
C 1882 1582 2491 1645 2582 1755 
L 2582 1264 
C 2582 827 2236 400 1600 400 
z
" transform="scale(0.015625)"/>
      <path id="Inter-Regular-6b" d="M 491 0 
L 1027 0 
L 1027 1307 
L 1402 1655 
L 2709 0 
L 3391 0 
L 1807 2000 
L 3282 3491 
L 2618 3491 
L 1091 1936 
L 1027 1936 
L 1027 4655 
L 491 4655 
L 491 0 
z
" transform="scale(0.015625)"/>
     </defs>
     <use xlink:href="#Inter-Regular-48"/>
     <use xlink:href="#Inter-Regular-61" x="74.005692"/>
     <use xlink:href="#Inter-Regular-69" x="130.397751"/>
     <use xlink:href="#Inter-Regular-6b" x="154.119339"/>
     <use xlink:href="#Inter-Regular-75" x="208.522751"/>
     <use xlink:href="#Inter-Regular-2d" x="266.619354"/>
     <use xlink:href="#Inter-Regular-34" x="312.64209"/>
     <use xlink:href="#Inter-Regular-2d" x="376.846649"/>
     <use xlink:href="#Inter-Regular-35" x="422.869385"/>
    </g>
   </g>
   <g id="legend_1">
    <g id="patch_29">
     <path d="M 51.86 28.121743 
L 71.86 28.121743 
L 71.86 21.121743 
L 51.86 21.121743 
z
" style="fill: #3c8829"/>
    </g>
    <g id="text_31">
     <!-- Successful Request and Correct Answers -->
     <g transform="translate(79.86 28.121743) scale(0.1 -0.1)">
      <defs>
       <path id="Inter-Regular-53" d="M 3109 3491 
L 3655 3491 
C 3630 4193 2982 4718 2082 4718 
C 1191 4718 491 4200 491 3418 
C 491 2791 946 2418 1673 2209 
L 2246 2045 
C 2736 1909 3173 1736 3173 1273 
C 3173 764 2682 427 2036 427 
C 1482 427 991 673 946 1200 
L 364 1200 
C 418 436 1036 -82 2036 -82 
C 3109 -82 3718 509 3718 1264 
C 3718 2136 2891 2418 2409 2545 
L 1936 2673 
C 1591 2764 1036 2945 1036 3445 
C 1036 3891 1446 4218 2064 4218 
C 2627 4218 3055 3950 3109 3491 
z
" transform="scale(0.015625)"/>
       <path id="Inter-Regular-63" d="M 1909 -73 
C 2682 -73 3191 400 3282 1018 
L 2746 1018 
C 2646 636 2327 409 1909 409 
C 1273 409 864 936 864 1745 
C 864 2536 1282 3055 1909 3055 
C 2382 3055 2664 2764 2746 2445 
L 3282 2445 
C 3191 3100 2636 3536 1900 3536 
C 955 3536 327 2791 327 1727 
C 327 682 927 -73 1909 -73 
z
" transform="scale(0.015625)"/>
       <path id="Inter-Regular-73" d="M 2964 2709 
C 2796 3205 2418 3536 1727 3536 
C 991 3536 446 3118 446 2527 
C 446 2045 732 1723 1373 1573 
L 1955 1436 
C 2307 1355 2473 1186 2473 945 
C 2473 645 2155 400 1655 400 
C 1216 400 941 589 846 964 
L 336 836 
C 461 243 950 -73 1664 -73 
C 2475 -73 3027 370 3027 973 
C 3027 1459 2723 1766 2100 1918 
L 1582 2045 
C 1168 2148 982 2286 982 2555 
C 982 2855 1300 3073 1727 3073 
C 2196 3073 2389 2814 2482 2573 
L 2964 2709 
z
" transform="scale(0.015625)"/>
       <path id="Inter-Regular-66" d="M 2046 3491 
L 1264 3491 
L 1264 3845 
C 1264 4191 1409 4373 1764 4373 
C 1918 4373 2009 4336 2064 4318 
L 2218 4782 
C 2136 4818 1973 4873 1709 4873 
C 1209 4873 727 4573 727 3973 
L 727 3491 
L 164 3491 
L 164 3036 
L 727 3036 
L 727 0 
L 1264 0 
L 1264 3036 
L 2046 3036 
L 2046 3491 
z
" transform="scale(0.015625)"/>
       <path id="Inter-Regular-6c" d="M 1027 4655 
L 491 4655 
L 491 0 
L 1027 0 
L 1027 4655 
z
" transform="scale(0.015625)"/>
       <path id="Inter-Regular-52" d="M 564 0 
L 1127 0 
L 1127 1818 
L 2146 1818 
C 2186 1818 2225 1818 2264 1820 
L 3246 0 
L 3900 0 
L 2848 1923 
C 3441 2125 3718 2609 3718 3227 
C 3718 4050 3227 4655 2136 4655 
L 564 4655 
L 564 0 
z
M 1127 2327 
L 1127 4155 
L 2118 4155 
C 2873 4155 3164 3786 3164 3227 
C 3164 2668 2873 2327 2127 2327 
L 1127 2327 
z
" transform="scale(0.015625)"/>
       <path id="Inter-Regular-71" d="M 2873 -1309 
L 3409 -1309 
L 3409 3491 
L 2891 3491 
L 2891 2936 
L 2827 2936 
C 2709 3118 2500 3536 1818 3536 
C 936 3536 327 2836 327 1736 
C 327 627 936 -73 1809 -73 
C 2482 -73 2709 345 2827 536 
L 2873 536 
L 2873 -1309 
z
M 1882 409 
C 1209 409 864 1000 864 1745 
C 864 2482 1200 3055 1882 3055 
C 2536 3055 2882 2527 2882 1745 
C 2882 955 2527 409 1882 409 
z
" transform="scale(0.015625)"/>
       <path id="Inter-Regular-64" d="M 1809 -73 
C 2482 -73 2709 345 2827 536 
L 2891 536 
L 2891 0 
L 3409 0 
L 3409 4655 
L 2873 4655 
L 2873 2936 
L 2827 2936 
C 2709 3118 2500 3536 1818 3536 
C 936 3536 327 2836 327 1736 
C 327 627 936 -73 1809 -73 
z
M 1882 409 
C 1209 409 864 1000 864 1745 
C 864 2482 1200 3055 1882 3055 
C 2536 3055 2882 2527 2882 1745 
C 2882 955 2527 409 1882 409 
z
" transform="scale(0.015625)"/>
       <path id="Inter-Regular-41" d="M 755 0 
L 1223 1318 
L 3105 1318 
L 3573 0 
L 4164 0 
L 2455 4655 
L 1873 4655 
L 164 0 
L 755 0 
z
M 1400 1818 
L 2146 3918 
L 2182 3918 
L 2927 1818 
L 1400 1818 
z
" transform="scale(0.015625)"/>
       <path id="Inter-Regular-77" d="M 1282 0 
L 1809 0 
L 2573 2682 
L 2627 2682 
L 3391 0 
L 3918 0 
L 4982 3491 
L 4418 3491 
L 3664 827 
L 3627 827 
L 2891 3491 
L 2318 3491 
L 1573 818 
L 1536 818 
L 782 3491 
L 218 3491 
L 1282 0 
z
" transform="scale(0.015625)"/>
      </defs>
      <use xlink:href="#Inter-Regular-53"/>
      <use xlink:href="#Inter-Regular-75" x="63.778427"/>
      <use xlink:href="#Inter-Regular-63" x="121.875031"/>
      <use xlink:href="#Inter-Regular-63" x="177.698898"/>
      <use xlink:href="#Inter-Regular-65" x="233.522766"/>
      <use xlink:href="#Inter-Regular-73" x="291.761414"/>
      <use xlink:href="#Inter-Regular-73" x="344.034149"/>
      <use xlink:href="#Inter-Regular-66" x="396.306885"/>
      <use xlink:href="#Inter-Regular-75" x="432.386429"/>
      <use xlink:href="#Inter-Regular-6c" x="490.483032"/>
      <use xlink:href="#Inter-Regular-20" x="514.20462"/>
      <use xlink:href="#Inter-Regular-52" x="542.32962"/>
      <use xlink:href="#Inter-Regular-65" x="606.250092"/>
      <use xlink:href="#Inter-Regular-71" x="664.488739"/>
      <use xlink:href="#Inter-Regular-75" x="725.426254"/>
      <use xlink:href="#Inter-Regular-65" x="783.522858"/>
      <use xlink:href="#Inter-Regular-73" x="841.761505"/>
      <use xlink:href="#Inter-Regular-74" x="894.034241"/>
      <use xlink:href="#Inter-Regular-20" x="930.397888"/>
      <use xlink:href="#Inter-Regular-61" x="958.522888"/>
      <use xlink:href="#Inter-Regular-6e" x="1014.914948"/>
      <use xlink:href="#Inter-Regular-64" x="1073.437683"/>
      <use xlink:href="#Inter-Regular-20" x="1135.511566"/>
      <use xlink:href="#Inter-Regular-43" x="1163.636566"/>
      <use xlink:href="#Inter-Regular-6f" x="1236.363861"/>
      <use xlink:href="#Inter-Regular-72" x="1296.022964"/>
      <use xlink:href="#Inter-Regular-72" x="1333.238876"/>
      <use xlink:href="#Inter-Regular-65" x="1370.454788"/>
      <use xlink:href="#Inter-Regular-63" x="1428.693436"/>
      <use xlink:href="#Inter-Regular-74" x="1484.517303"/>
      <use xlink:href="#Inter-Regular-20" x="1520.880951"/>
      <use xlink:href="#Inter-Regular-41" x="1549.005951"/>
      <use xlink:href="#Inter-Regular-6e" x="1616.619598"/>
      <use xlink:href="#Inter-Regular-73" x="1675.142334"/>
      <use xlink:href="#Inter-Regular-77" x="1727.41507"/>
      <use xlink:href="#Inter-Regular-65" x="1808.665085"/>
      <use xlink:href="#Inter-Regular-72" x="1866.903732"/>
      <use xlink:href="#Inter-Regular-73" x="1904.119644"/>
     </g>
    </g>
    <g id="patch_30">
     <path d="M 51.86 42.781118 
L 71.86 42.781118 
L 71.86 35.781118 
L 51.86 35.781118 
z
" style="fill: #202446"/>
    </g>
    <g id="text_32">
     <!-- Successful Requests, but Incorrect Answers -->
     <g transform="translate(79.86 42.781118) scale(0.1 -0.1)">
      <defs>
       <path id="Inter-Regular-2c" d="M 1291 636 
L 709 636 
L 682 382 
C 616 -234 486 -848 427 -1136 
L 836 -1136 
C 946 -827 1177 -127 1255 391 
L 1291 636 
z
" transform="scale(0.015625)"/>
       <path id="Inter-Regular-62" d="M 564 0 
L 1082 0 
L 1082 536 
L 1146 536 
C 1264 345 1491 -73 2164 -73 
C 3036 -73 3646 627 3646 1736 
C 3646 2836 3036 3536 2155 3536 
C 1473 3536 1264 3118 1146 2936 
L 1100 2936 
L 1100 4655 
L 564 4655 
L 564 0 
z
M 1091 1745 
C 1091 2527 1436 3055 2091 3055 
C 2773 3055 3109 2482 3109 1745 
C 3109 1000 2764 409 2091 409 
C 1446 409 1091 955 1091 1745 
z
" transform="scale(0.015625)"/>
      </defs>
      <use xlink:href="#Inter-Regular-53"/>
      <use xlink:href="#Inter-Regular-75" x="63.778427"/>
      <use xlink:href="#Inter-Regular-63" x="121.875031"/>
      <use xlink:href="#Inter-Regular-63" x="177.698898"/>
      <use xlink:href="#Inter-Regular-65" x="233.522766"/>
      <use xlink:href="#Inter-Regular-73" x="291.761414"/>
      <use xlink:href="#Inter-Regular-73" x="344.034149"/>
      <use xlink:href="#Inter-Regular-66" x="396.306885"/>
      <use xlink:href="#Inter-Regular-75" x="432.386429"/>
      <use xlink:href="#Inter-Regular-6c" x="490.483032"/>
      <use xlink:href="#Inter-Regular-20" x="514.20462"/>
      <use xlink:href="#Inter-Regular-52" x="542.32962"/>
      <use xlink:href="#Inter-Regular-65" x="606.250092"/>
      <use xlink:href="#Inter-Regular-71" x="664.488739"/>
      <use xlink:href="#Inter-Regular-75" x="725.426254"/>
      <use xlink:href="#Inter-Regular-65" x="783.522858"/>
      <use xlink:href="#Inter-Regular-73" x="841.761505"/>
      <use xlink:href="#Inter-Regular-74" x="894.034241"/>
      <use xlink:href="#Inter-Regular-73" x="930.397888"/>
      <use xlink:href="#Inter-Regular-2c" x="982.670624"/>
      <use xlink:href="#Inter-Regular-20" x="1010.65358"/>
      <use xlink:href="#Inter-Regular-62" x="1038.77858"/>
      <use xlink:href="#Inter-Regular-75" x="1100.852463"/>
      <use xlink:href="#Inter-Regular-74" x="1158.949066"/>
      <use xlink:href="#Inter-Regular-20" x="1195.312714"/>
      <use xlink:href="#Inter-Regular-49" x="1223.437714"/>
      <use xlink:href="#Inter-Regular-6e" x="1249.85817"/>
      <use xlink:href="#Inter-Regular-63" x="1308.380905"/>
      <use xlink:href="#Inter-Regular-6f" x="1364.204773"/>
      <use xlink:href="#Inter-Regular-72" x="1423.863876"/>
      <use xlink:href="#Inter-Regular-72" x="1461.079788"/>
      <use xlink:href="#Inter-Regular-65" x="1498.2957"/>
      <use xlink:href="#Inter-Regular-63" x="1556.534348"/>
      <use xlink:href="#Inter-Regular-74" x="1612.358215"/>
      <use xlink:href="#Inter-Regular-20" x="1648.721863"/>
      <use xlink:href="#Inter-Regular-41" x="1676.846863"/>
      <use xlink:href="#Inter-Regular-6e" x="1744.46051"/>
      <use xlink:href="#Inter-Regular-73" x="1802.983246"/>
      <use xlink:href="#Inter-Regular-77" x="1855.255981"/>
      <use xlink:href="#Inter-Regular-65" x="1936.505997"/>
      <use xlink:href="#Inter-Regular-72" x="1994.744644"/>
      <use xlink:href="#Inter-Regular-73" x="2031.960556"/>
     </g>
    </g>
   </g>
  </g>
 </g>
 <defs>
  <clipPath id="pc616943da0">
   <rect x="42.86" y="66.784" width="810.34" height="251.256"/>
  </clipPath>
 </defs>
</svg>
